<svg width="31" height="36" viewBox="0 0 31 36" fill="none" xmlns="http://www.w3.org/2000/svg">
<path d="M13.1126 26.0295L20.6697 18.0753H20.6718C20.9101 17.8244 21.2278 17.6948 21.5477 17.6864C21.8675 17.6781 22.1915 17.793 22.4424 18.0314H22.4445L30.3987 25.5884V25.5905C30.6496 25.8288 30.7792 26.1466 30.7875 26.4664C30.7959 26.7862 30.6809 27.1103 30.4426 27.3611V27.3632L22.8856 35.3195H22.8835C22.6452 35.5704 22.3274 35.7 22.0076 35.7084C21.6877 35.7167 21.3637 35.6018 21.1129 35.3634H21.1108L13.1565 27.8064V27.8043C12.9057 27.566 12.7761 27.2482 12.7677 26.9284C12.7593 26.6086 12.8743 26.2845 13.1126 26.0337V26.0316V26.0295ZM21.5832 19.0578L14.1411 26.8908L21.9741 34.3328L29.4162 26.4998L21.5832 19.0578Z" fill="#999999"/>
<path d="M12.6778 8.63469L20.2349 0.680451H20.2369C20.4753 0.429595 20.793 0.299986 21.1129 0.291624C21.4327 0.283262 21.7567 0.398238 22.0076 0.636551H22.0097L29.9639 8.1936V8.19569C30.2148 8.434 30.3444 8.75175 30.3527 9.07159C30.3611 9.39144 30.2461 9.71546 30.0078 9.96632V9.96841L22.4508 17.9226H22.4487C22.2104 18.1735 21.8926 18.3031 21.5728 18.3115C21.2529 18.3198 20.9289 18.2049 20.678 17.9665H20.6759L12.7217 10.4095V10.4074C12.4709 10.1691 12.3412 9.85134 12.3329 9.5315C12.3245 9.21166 12.4395 8.88763 12.6778 8.63678V8.63469ZM21.1484 1.66297L13.7063 9.49596L21.5393 16.938L28.9814 9.10504L21.1484 1.66297Z" fill="#999999"/>
<path d="M0.590742 17.5338L9.97695 7.65216L9.97904 7.65425C10.2424 7.37831 10.5915 7.23407 10.9407 7.2257C11.2939 7.21734 11.6493 7.34277 11.9253 7.60408L21.8069 16.9903C22.0829 17.2516 22.225 17.6028 22.2355 17.954C22.2438 18.3052 22.1184 18.6606 21.8571 18.9365V18.9386L12.4709 28.8203H12.4688C12.2075 29.0962 11.8584 29.2383 11.5072 29.2488C11.1539 29.2572 10.7985 29.1317 10.5226 28.8704L0.640913 19.4842C0.364971 19.2229 0.222819 18.8717 0.212367 18.5205C0.204005 18.1714 0.329433 17.8139 0.592832 17.538L0.590742 17.5359V17.5338ZM10.9825 8.84791L1.83457 18.4766L11.4633 27.6245L20.6112 17.9958L10.9825 8.84791Z" fill="#666666"/>
</svg>
